<svg width="24" height="24" viewBox="0 0 24 24" fill="none" xmlns="http://www.w3.org/2000/svg">
<path d="M15.9335 13.868C18.3823 10.4779 17.5633 5.78355 14.1054 3.38335C10.6474 0.983145 5.85924 1.78551 3.41102 5.17619C0.962805 8.5663 1.78122 13.26 5.23972 15.6602C7.70783 17.3734 10.9709 17.5053 13.5742 15.998L19.2305 21.5102C19.8413 22.1405 20.8574 22.1657 21.5003 21.567C22.1432 20.9688 22.169 19.9726 21.5588 19.3423C21.5395 19.3222 21.5208 19.3038 21.5003 19.2849L15.9335 13.868ZM9.66757 14.3818C6.93505 14.3824 4.71966 12.2122 4.71791 9.53326C4.71732 6.85433 6.93095 4.68238 9.66406 4.68124C12.3931 4.68009 14.6073 6.84687 14.6126 9.52237C14.6172 12.2019 12.4048 14.3773 9.67108 14.3818C9.66991 14.3818 9.66933 14.3818 9.66757 14.3818Z" fill="#DADADA"/>
</svg>
