<svg width="137" height="40" viewBox="0 0 137 40" fill="none" xmlns="http://www.w3.org/2000/svg">
<path d="M34.6897 30.1761C34.1222 30.1761 33.6624 30 33.3102 29.6478C32.9775 29.2956 32.8112 28.8357 32.8112 28.2683V11.0975C32.8112 10.53 32.9677 10.0898 33.2808 9.77669C33.6135 9.4636 34.0635 9.30706 34.631 9.30706H44.9334C46.1271 9.30706 46.7239 9.81582 46.7239 10.8333C46.7239 11.8313 46.1271 12.3303 44.9334 12.3303H36.5388V17.9658H44.3464C45.54 17.9658 46.1368 18.4746 46.1368 19.4921C46.1368 20.4901 45.54 20.989 44.3464 20.989H36.5388V28.2683C36.5388 28.8357 36.3725 29.2956 36.0399 29.6478C35.7072 30 35.2571 30.1761 34.6897 30.1761ZM60.1857 26.0669C60.5184 26.0669 60.7826 26.1941 60.9782 26.4484C61.1935 26.7028 61.3011 27.0453 61.3011 27.4758C61.3011 28.0824 60.9391 28.5911 60.2151 29.002C59.5498 29.3738 58.7964 29.6771 57.955 29.9119C57.1136 30.1272 56.3113 30.2348 55.5482 30.2348C53.2392 30.2348 51.4096 29.5695 50.0594 28.2389C48.7092 26.9083 48.0341 25.0885 48.0341 22.7795C48.0341 21.3119 48.3277 20.0106 48.9147 18.8757C49.5017 17.7408 50.3236 16.8602 51.3802 16.2341C52.4565 15.6079 53.6697 15.2948 55.0199 15.2948C56.3113 15.2948 57.4365 15.5785 58.3953 16.146C59.3541 16.7135 60.0977 17.5157 60.626 18.5528C61.1544 19.5899 61.4185 20.8129 61.4185 22.2218C61.4185 23.0632 61.0467 23.4839 60.3032 23.4839H51.6444C51.7618 24.8341 52.1434 25.8321 52.7891 26.4778C53.4349 27.104 54.3741 27.4171 55.6069 27.4171C56.2331 27.4171 56.781 27.3388 57.2506 27.1822C57.7398 27.0257 58.2877 26.8105 58.8943 26.5365C59.4813 26.2234 59.9118 26.0669 60.1857 26.0669ZM55.1079 17.8778C54.1099 17.8778 53.3077 18.1908 52.7011 18.817C52.114 19.4432 51.7618 20.3433 51.6444 21.5174H58.2779C58.2388 20.3237 57.9452 19.4236 57.3973 18.817C56.8494 18.1908 56.0863 17.8778 55.1079 17.8778ZM75.7788 26.0669C76.1115 26.0669 76.3756 26.1941 76.5713 26.4484C76.7866 26.7028 76.8942 27.0453 76.8942 27.4758C76.8942 28.0824 76.5322 28.5911 75.8082 29.002C75.1429 29.3738 74.3895 29.6771 73.5481 29.9119C72.7067 30.1272 71.9044 30.2348 71.1413 30.2348C68.8323 30.2348 67.0027 29.5695 65.6525 28.2389C64.3023 26.9083 63.6272 25.0885 63.6272 22.7795C63.6272 21.3119 63.9207 20.0106 64.5078 18.8757C65.0948 17.7408 65.9167 16.8602 66.9733 16.2341C68.0496 15.6079 69.2628 15.2948 70.6129 15.2948C71.9044 15.2948 73.0296 15.5785 73.9884 16.146C74.9472 16.7135 75.6908 17.5157 76.2191 18.5528C76.7474 19.5899 77.0116 20.8129 77.0116 22.2218C77.0116 23.0632 76.6398 23.4839 75.8962 23.4839H67.2375C67.3549 24.8341 67.7365 25.8321 68.3822 26.4778C69.0279 27.104 69.9672 27.4171 71.2 27.4171C71.8261 27.4171 72.374 27.3388 72.8437 27.1822C73.3329 27.0257 73.8808 26.8105 74.4874 26.5365C75.0744 26.2234 75.5049 26.0669 75.7788 26.0669ZM70.701 17.8778C69.703 17.8778 68.9008 18.1908 68.2941 18.817C67.7071 19.4432 67.3549 20.3433 67.2375 21.5174H73.871C73.8318 20.3237 73.5383 19.4236 72.9904 18.817C72.4425 18.1908 71.6794 17.8778 70.701 17.8778ZM91.9883 9.1603C92.5362 9.1603 92.9863 9.31685 93.3385 9.62993C93.6907 9.94301 93.8668 10.3539 93.8668 10.8627V28.415C93.8668 28.9433 93.7005 29.364 93.3678 29.6771C93.0352 29.9902 92.5949 30.1468 92.047 30.1468C91.4991 30.1468 91.0588 29.9902 90.7262 29.6771C90.3935 29.364 90.2272 28.9433 90.2272 28.415V27.6812C89.7967 28.4835 89.1705 29.1097 88.3487 29.5597C87.5464 30.0098 86.6267 30.2348 85.5896 30.2348C84.3569 30.2348 83.2513 29.9217 82.2729 29.2956C81.3141 28.6694 80.5607 27.7888 80.0128 26.6539C79.4845 25.4994 79.2203 24.1786 79.2203 22.6914C79.2203 21.2043 79.4845 19.903 80.0128 18.7877C80.5607 17.6723 81.3141 16.8113 82.2729 16.2047C83.2317 15.5981 84.3373 15.2948 85.5896 15.2948C86.6267 15.2948 87.5464 15.5101 88.3487 15.9405C89.151 16.371 89.7674 16.9776 90.1978 17.7603V10.804C90.1978 10.3148 90.3544 9.92345 90.6675 9.62993C91.0001 9.31685 91.4404 9.1603 91.9883 9.1603ZM86.5582 27.3877C87.7323 27.3877 88.6324 26.9866 89.2586 26.1843C89.9043 25.382 90.2272 24.2373 90.2272 22.7501C90.2272 21.263 89.9043 20.128 89.2586 19.3453C88.6324 18.5431 87.7421 18.1419 86.5876 18.1419C85.4135 18.1419 84.5036 18.5333 83.8579 19.316C83.2121 20.0987 82.8893 21.2238 82.8893 22.6914C82.8893 24.1786 83.2121 25.3331 83.8579 26.1549C84.5036 26.9768 85.4037 27.3877 86.5582 27.3877Z" fill="#181818"/>
<path d="M114.694 15.2948C116.26 15.2948 117.453 15.7644 118.275 16.7037C119.117 17.6234 119.537 19.1203 119.537 21.1945V28.415C119.537 28.9825 119.361 29.4228 119.009 29.7358C118.676 30.0294 118.236 30.1761 117.688 30.1761C117.16 30.1761 116.72 30.0294 116.367 29.7358C116.035 29.4228 115.868 28.9825 115.868 28.415V21.1945C115.868 20.1183 115.673 19.3551 115.281 18.9051C114.91 18.4354 114.332 18.2006 113.55 18.2006C112.591 18.2006 111.828 18.5333 111.26 19.1986C110.693 19.8443 110.409 20.7347 110.409 21.8696V28.415C110.409 28.9825 110.233 29.4228 109.881 29.7358C109.548 30.0294 109.118 30.1761 108.589 30.1761C108.061 30.1761 107.621 30.0294 107.268 29.7358C106.916 29.4228 106.74 28.9825 106.74 28.415V21.1945C106.74 20.1183 106.544 19.3551 106.153 18.9051C105.781 18.4354 105.204 18.2006 104.421 18.2006C103.462 18.2006 102.699 18.5333 102.132 19.1986C101.584 19.8443 101.31 20.7347 101.31 21.8696V28.415C101.31 28.9825 101.134 29.4228 100.782 29.7358C100.429 30.0294 99.9891 30.1761 99.4608 30.1761C98.9325 30.1761 98.4922 30.0294 98.14 29.7358C97.8073 29.4228 97.641 28.9825 97.641 28.415V17.0559C97.641 16.508 97.8171 16.0873 98.1693 15.7938C98.5216 15.5003 98.9618 15.3535 99.4902 15.3535C99.9989 15.3535 100.41 15.5003 100.723 15.7938C101.056 16.0677 101.222 16.4689 101.222 16.9972V17.7016C101.672 16.9189 102.269 16.3221 103.012 15.9112C103.776 15.5003 104.646 15.2948 105.625 15.2948C107.777 15.2948 109.215 16.1949 109.939 17.9952C110.37 17.1733 111.006 16.5178 111.847 16.0286C112.689 15.5394 113.638 15.2948 114.694 15.2948ZM134.626 26.0669C134.958 26.0669 135.222 26.1941 135.418 26.4484C135.633 26.7028 135.741 27.0453 135.741 27.4758C135.741 28.0824 135.379 28.5911 134.655 29.002C133.99 29.3738 133.236 29.6771 132.395 29.9119C131.553 30.1272 130.751 30.2348 129.988 30.2348C127.679 30.2348 125.849 29.5695 124.499 28.2389C123.149 26.9083 122.474 25.0885 122.474 22.7795C122.474 21.3119 122.767 20.0106 123.354 18.8757C123.941 17.7408 124.763 16.8602 125.82 16.2341C126.896 15.6079 128.109 15.2948 129.46 15.2948C130.751 15.2948 131.876 15.5785 132.835 16.146C133.794 16.7135 134.537 17.5157 135.066 18.5528C135.594 19.5899 135.858 20.8129 135.858 22.2218C135.858 23.0632 135.486 23.4839 134.743 23.4839H126.084C126.202 24.8341 126.583 25.8321 127.229 26.4778C127.875 27.104 128.814 27.4171 130.047 27.4171C130.673 27.4171 131.221 27.3388 131.69 27.1822C132.18 27.0257 132.727 26.8105 133.334 26.5365C133.921 26.2234 134.352 26.0669 134.626 26.0669ZM129.548 17.8778C128.55 17.8778 127.747 18.1908 127.141 18.817C126.554 19.4432 126.202 20.3433 126.084 21.5174H132.718C132.679 20.3237 132.385 19.4236 131.837 18.817C131.289 18.1908 130.526 17.8778 129.548 17.8778Z" fill="#FFBC01"/>
<path d="M18.4066 19.6555C16.8852 18.2192 16.0474 16.4365 16.0474 14.636V14.038C16.0474 11.1176 13.9762 8.60511 11.2787 8.16602C11.3096 7.65289 11.4696 7.15488 11.7689 6.72067C12.2064 6.08573 12.8823 5.65806 13.6722 5.51601C14.1852 5.42357 14.5266 4.93187 14.4347 4.41738C14.3425 3.90289 13.8494 3.55811 13.3391 3.65272C12.0506 3.88442 10.9415 4.59181 10.2161 5.64454C9.69113 6.40601 9.40858 7.28363 9.38104 8.18664C8.34686 8.37408 7.37455 8.84028 6.58592 9.55642C5.40126 10.6314 4.72164 12.1666 4.72164 13.7681V14.636C4.72164 16.4368 3.88384 18.2194 2.36245 19.6558C-2.59542 24.3373 0.783445 32.6956 7.55245 32.6956C8.51043 32.6956 9.46308 32.5046 10.3845 32.1241C18.0087 35.2726 24.4491 25.3622 18.4066 19.6555ZM7.5541 28.9117C4.19937 28.9117 2.4607 24.7625 4.95128 22.4109C5.33066 22.0519 5.92857 22.0704 6.28524 22.4509C6.64286 22.8314 6.62473 23.4303 6.24529 23.7886C5.0038 24.962 5.89571 27.0187 7.5541 27.0187C8.07547 27.0187 8.49791 27.4423 8.49791 27.9652C8.49791 28.488 8.07547 28.9117 7.5541 28.9117Z" fill="#FFBC01"/>
</svg>
