<svg width="112" height="52" viewBox="0 0 112 52" fill="none" xmlns="http://www.w3.org/2000/svg">
<path d="M28.432 18.192C27.376 18.192 26.848 17.648 26.848 16.56V2.712C26.848 1.624 27.392 1.08 28.48 1.08H36.856C37.688 1.08 38.104 1.48 38.104 2.28C38.104 3.112 37.688 3.528 36.856 3.528H29.92V8.304H36.352C37.184 8.304 37.6 8.704 37.6 9.504C37.6 10.336 37.184 10.752 36.352 10.752H29.92V16.56C29.92 17.648 29.424 18.192 28.432 18.192ZM45.3987 18.24C44.0707 18.24 42.9267 17.992 41.9667 17.496C41.0067 17 40.2627 16.296 39.7347 15.384C39.2227 14.472 38.9667 13.392 38.9667 12.144C38.9667 10.928 39.2147 9.864 39.7107 8.952C40.2227 8.04 40.9187 7.328 41.7987 6.816C42.6947 6.288 43.7107 6.024 44.8467 6.024C46.5107 6.024 47.8227 6.552 48.7827 7.608C49.7587 8.664 50.2467 10.104 50.2467 11.928C50.2467 12.52 49.8627 12.816 49.0947 12.816H41.8467C42.0707 14.912 43.2707 15.96 45.4467 15.96C45.8627 15.96 46.3267 15.912 46.8387 15.816C47.3667 15.704 47.8627 15.52 48.3267 15.264C48.7427 15.024 49.0947 14.952 49.3827 15.048C49.6707 15.128 49.8707 15.296 49.9827 15.552C50.1107 15.808 50.1267 16.096 50.0307 16.416C49.9507 16.72 49.7267 16.984 49.3587 17.208C48.7987 17.56 48.1507 17.824 47.4147 18C46.6947 18.16 46.0227 18.24 45.3987 18.24ZM44.9667 8.064C44.0867 8.064 43.3747 8.336 42.8307 8.88C42.2867 9.424 41.9587 10.16 41.8467 11.088H47.7507C47.6867 10.112 47.4147 9.368 46.9347 8.856C46.4707 8.328 45.8147 8.064 44.9667 8.064ZM58.4065 18.24C57.0785 18.24 55.9345 17.992 54.9745 17.496C54.0145 17 53.2705 16.296 52.7425 15.384C52.2305 14.472 51.9745 13.392 51.9745 12.144C51.9745 10.928 52.2225 9.864 52.7185 8.952C53.2305 8.04 53.9265 7.328 54.8065 6.816C55.7025 6.288 56.7185 6.024 57.8545 6.024C59.5185 6.024 60.8305 6.552 61.7905 7.608C62.7665 8.664 63.2545 10.104 63.2545 11.928C63.2545 12.52 62.8705 12.816 62.1025 12.816H54.8545C55.0785 14.912 56.2785 15.96 58.4545 15.96C58.8705 15.96 59.3345 15.912 59.8465 15.816C60.3745 15.704 60.8705 15.52 61.3345 15.264C61.7505 15.024 62.1025 14.952 62.3905 15.048C62.6785 15.128 62.8785 15.296 62.9905 15.552C63.1185 15.808 63.1345 16.096 63.0385 16.416C62.9585 16.72 62.7345 16.984 62.3665 17.208C61.8065 17.56 61.1585 17.824 60.4225 18C59.7025 18.16 59.0305 18.24 58.4065 18.24ZM57.9745 8.064C57.0945 8.064 56.3825 8.336 55.8385 8.88C55.2945 9.424 54.9665 10.16 54.8545 11.088H60.7585C60.6945 10.112 60.4225 9.368 59.9425 8.856C59.4785 8.328 58.8225 8.064 57.9745 8.064ZM70.1423 18.24C69.1183 18.24 68.2143 17.992 67.4303 17.496C66.6623 17 66.0623 16.296 65.6303 15.384C65.1983 14.456 64.9823 13.368 64.9823 12.12C64.9823 10.856 65.1983 9.776 65.6303 8.88C66.0623 7.968 66.6623 7.264 67.4303 6.768C68.2143 6.272 69.1183 6.024 70.1423 6.024C70.9743 6.024 71.7263 6.208 72.3983 6.576C73.0703 6.944 73.5743 7.432 73.9103 8.04V2.4C73.9103 1.392 74.4063 0.887999 75.3983 0.887999C76.4063 0.887999 76.9103 1.392 76.9103 2.4V16.656C76.9103 17.68 76.4143 18.192 75.4223 18.192C74.4303 18.192 73.9343 17.68 73.9343 16.656V16.152C73.5983 16.792 73.0943 17.304 72.4223 17.688C71.7503 18.056 70.9903 18.24 70.1423 18.24ZM70.9823 15.96C71.8783 15.96 72.5983 15.64 73.1423 15C73.6863 14.344 73.9583 13.384 73.9583 12.12C73.9583 10.84 73.6863 9.888 73.1423 9.264C72.5983 8.624 71.8783 8.304 70.9823 8.304C70.0863 8.304 69.3663 8.624 68.8223 9.264C68.2783 9.888 68.0063 10.84 68.0063 12.12C68.0063 13.384 68.2783 14.344 68.8223 15C69.3663 15.64 70.0863 15.96 70.9823 15.96Z" fill="#F7F7F7"/>
<path d="M81.5569 18.192C80.5649 18.192 80.0689 17.68 80.0689 16.656V7.584C80.0689 6.576 80.5569 6.072 81.5329 6.072C82.5089 6.072 82.9969 6.576 82.9969 7.584V8.064C83.3489 7.424 83.8369 6.928 84.4609 6.576C85.0849 6.208 85.8049 6.024 86.6209 6.024C88.3809 6.024 89.5329 6.792 90.0769 8.328C90.4449 7.608 90.9729 7.048 91.6609 6.648C92.3489 6.232 93.1329 6.024 94.0129 6.024C96.6529 6.024 97.9729 7.632 97.9729 10.848V16.656C97.9729 17.68 97.4689 18.192 96.4609 18.192C95.4689 18.192 94.9729 17.68 94.9729 16.656V10.968C94.9729 10.072 94.8209 9.416 94.5169 9C94.2289 8.584 93.7329 8.376 93.0289 8.376C92.2449 8.376 91.6289 8.656 91.1809 9.216C90.7329 9.76 90.5089 10.52 90.5089 11.496V16.656C90.5089 17.68 90.0129 18.192 89.0209 18.192C88.0129 18.192 87.5089 17.68 87.5089 16.656V10.968C87.5089 10.072 87.3569 9.416 87.0529 9C86.7649 8.584 86.2769 8.376 85.5889 8.376C84.8049 8.376 84.1889 8.656 83.7409 9.216C83.2929 9.76 83.0689 10.52 83.0689 11.496V16.656C83.0689 17.68 82.5649 18.192 81.5569 18.192ZM32.344 51.24C31.016 51.24 29.872 50.992 28.912 50.496C27.952 50 27.208 49.296 26.68 48.384C26.168 47.472 25.912 46.392 25.912 45.144C25.912 43.928 26.16 42.864 26.656 41.952C27.168 41.04 27.864 40.328 28.744 39.816C29.64 39.288 30.656 39.024 31.792 39.024C33.456 39.024 34.768 39.552 35.728 40.608C36.704 41.664 37.192 43.104 37.192 44.928C37.192 45.52 36.808 45.816 36.04 45.816H28.792C29.016 47.912 30.216 48.96 32.392 48.96C32.808 48.96 33.272 48.912 33.784 48.816C34.312 48.704 34.808 48.52 35.272 48.264C35.688 48.024 36.04 47.952 36.328 48.048C36.616 48.128 36.816 48.296 36.928 48.552C37.056 48.808 37.072 49.096 36.976 49.416C36.896 49.72 36.672 49.984 36.304 50.208C35.744 50.56 35.096 50.824 34.36 51C33.64 51.16 32.968 51.24 32.344 51.24ZM31.912 41.064C31.032 41.064 30.32 41.336 29.776 41.88C29.232 42.424 28.904 43.16 28.792 44.088H34.696C34.632 43.112 34.36 42.368 33.88 41.856C33.416 41.328 32.76 41.064 31.912 41.064Z" fill="#FFBC01"/>
<path d="M15.0477 26.2152C13.804 25.0302 13.119 23.5595 13.119 22.0741V21.5807C13.119 19.1714 11.4258 17.0986 9.22054 16.7364C9.24578 16.313 9.37663 15.9022 9.62129 15.544C9.97892 15.0201 10.5315 14.6673 11.1772 14.5501C11.5967 14.4739 11.8757 14.0682 11.8006 13.6437C11.7252 13.2193 11.3221 12.9348 10.905 13.0129C9.85159 13.2041 8.94489 13.7876 8.35187 14.6561C7.92268 15.2844 7.69168 16.0084 7.66917 16.7534C6.82371 16.908 6.02883 17.2926 5.38411 17.8834C4.41563 18.7703 3.86003 20.0368 3.86003 21.3581V22.0741C3.86003 23.5597 3.17511 25.0304 1.93135 26.2154C-2.1218 30.0777 0.64048 36.9733 6.17427 36.9733C6.95743 36.9733 7.73624 36.8157 8.48953 36.5018C14.7225 39.0993 19.9875 30.9232 15.0477 26.2152ZM6.17561 33.8515C3.43306 33.8515 2.01166 30.4284 4.04776 28.4884C4.35791 28.1923 4.84672 28.2075 5.1383 28.5214C5.43066 28.8353 5.41584 29.3294 5.10564 29.625C4.0907 30.5931 4.81985 32.2898 6.17561 32.2898C6.60184 32.2898 6.9472 32.6393 6.9472 33.0707C6.9472 33.502 6.60184 33.8515 6.17561 33.8515Z" fill="#FFBC01"/>
</svg>
