<svg width="532" height="858" viewBox="0 0 532 858" fill="none" xmlns="http://www.w3.org/2000/svg">
<path opacity="0.15" d="M537.292 472.444C492.884 430.08 468.427 377.502 468.427 324.4V306.761C468.427 220.629 407.968 146.526 329.227 133.575C330.129 118.441 334.801 103.753 343.537 90.9466C356.306 72.2197 376.037 59.6061 399.093 55.4166C414.069 52.6901 424.033 38.1879 421.351 23.0137C418.66 7.83949 404.266 -2.32916 389.372 0.461017C351.76 7.29486 319.385 28.1584 298.211 59.2073C282.886 81.6661 274.638 107.55 273.835 134.183C243.647 139.712 215.265 153.462 192.244 174.583C157.664 206.287 137.826 251.567 137.826 298.801V324.398C137.826 377.511 113.37 430.088 68.9604 472.452C-75.7609 610.526 22.8689 857.046 220.458 857.046C248.421 857.046 276.229 851.412 303.126 840.189C525.678 933.049 713.673 640.754 537.292 472.444ZM220.506 745.442C122.58 745.442 71.8283 623.066 144.529 553.709C155.603 543.123 173.056 543.668 183.467 554.89C193.907 566.111 193.377 583.778 182.301 594.345C146.062 628.952 172.097 689.612 220.506 689.612C235.725 689.612 248.056 702.106 248.056 717.527C248.056 732.947 235.725 745.442 220.506 745.442Z" fill="white"/>
</svg>
