<svg width="24" height="24" viewBox="0 0 24 24" fill="none" xmlns="http://www.w3.org/2000/svg">
<path fill-rule="evenodd" clip-rule="evenodd" d="M19.5 21C19.5 21 21 21 21 19.5C21 18 19.5 13.5 12 13.5C4.5 13.5 3 18 3 19.5C3 21 4.5 21 4.5 21H19.5ZM16.5 7.5C16.5 8.69347 16.0259 9.83807 15.182 10.682C14.3381 11.5259 13.1935 12 12 12C10.8065 12 9.66193 11.5259 8.81802 10.682C7.97411 9.83807 7.5 8.69347 7.5 7.5C7.5 6.30653 7.97411 5.16193 8.81802 4.31802C9.66193 3.47411 10.8065 3 12 3C13.1935 3 14.3381 3.47411 15.182 4.31802C16.0259 5.16193 16.5 6.30653 16.5 7.5Z" fill="#494949"/>
</svg>
