<svg width="24" height="24" viewBox="0 0 24 24" fill="none" xmlns="http://www.w3.org/2000/svg">
<path d="M19.2686 4.05919C19.4353 3.96806 19.6366 3.98337 19.79 4.09676C19.9433 4.21084 20.022 4.40423 19.9946 4.59902L18.1613 17.4685C18.1393 17.6209 18.0533 17.7565 17.9267 17.8372C17.8473 17.8873 17.7573 17.913 17.6667 17.913C17.612 17.913 17.5573 17.9033 17.5053 17.8852L10.5167 15.3927L17.3887 6.75344L8.50801 14.6769L4.33803 13.1896C4.14936 13.1221 4.0167 12.944 4.00136 12.7353C3.9867 12.5273 4.09136 12.3298 4.2687 12.2331L19.2686 4.05919Z" fill="white"/>
<path d="M9.83325 19.4784V16.252L12.5446 17.2189L10.7359 19.7872C10.6399 19.9236 10.4892 20.0001 10.3333 20.0001C10.2813 20.0001 10.2286 19.9918 10.1773 19.9744C9.97192 19.9034 9.83325 19.7038 9.83325 19.4784Z" fill="white"/>
</svg>
