<svg width="24" height="24" viewBox="0 0 24 24" fill="none" xmlns="http://www.w3.org/2000/svg">
<path d="M20.3074 18.9228C20.6898 19.3052 20.6898 19.9251 20.3074 20.3074C19.9251 20.6898 19.3052 20.6898 18.9228 20.3074L11.9997 13.3844L5.07667 20.3074C4.69432 20.6898 4.07441 20.6898 3.69206 20.3074C3.30971 19.9251 3.30971 19.3052 3.69206 18.9228L10.6151 11.9997L3.69204 5.07665C3.30969 4.6943 3.30969 4.07439 3.69204 3.69204C4.07439 3.30969 4.6943 3.30968 5.07665 3.69204L11.9997 10.6151L18.9228 3.69204C19.3052 3.30969 19.9251 3.30969 20.3075 3.69204C20.6898 4.07439 20.6898 4.6943 20.3075 5.07665L13.3844 11.9997L20.3074 18.9228Z" fill="#494949"/>
</svg>
