<svg width="48" height="48" viewBox="0 0 48 48" fill="none" xmlns="http://www.w3.org/2000/svg">
<path d="M40.6154 37.8459C41.3801 38.6106 41.3801 39.8504 40.6154 40.6151C39.8507 41.3798 38.6108 41.3798 37.8461 40.6151L24 26.769L10.1538 40.6151C9.38913 41.3798 8.14931 41.3798 7.3846 40.6151C6.6199 39.8504 6.6199 38.6106 7.3846 37.8459L21.2308 23.9997L7.38456 10.1536C6.61986 9.38885 6.61986 8.14902 7.38456 7.38432C8.14926 6.61962 9.38909 6.61961 10.1538 7.38432L24 21.2305L37.8462 7.38432C38.6109 6.61962 39.8507 6.61962 40.6154 7.38432C41.3801 8.14902 41.3801 9.38885 40.6154 10.1536L26.7692 23.9997L40.6154 37.8459Z" fill="#DADADA"/>
</svg>
