<svg width="24" height="24" viewBox="0 0 24 24" fill="none" xmlns="http://www.w3.org/2000/svg">
<path fill-rule="evenodd" clip-rule="evenodd" d="M1.79882 1.59895C2.13076 1.267 2.66895 1.267 3.0009 1.59895L22.2009 20.799C22.5329 21.1309 22.5329 21.6691 22.2009 22.0011C21.869 22.333 21.3308 22.333 20.9989 22.0011L17.6841 18.6863C17.5784 18.5806 17.4171 18.5537 17.2828 18.6194C15.6127 19.4363 13.8125 19.85 11.9999 19.85C7.45731 19.85 2.97413 17.2492 0.439591 12.1801C0.319941 11.9409 0.319941 11.6592 0.439591 11.4199C1.53705 9.22497 2.99942 7.49434 4.67072 6.23723C4.75174 6.1763 4.80235 6.08322 4.80947 5.98209C4.81658 5.88097 4.7795 5.78172 4.70782 5.71004L1.79882 2.80104C1.46687 2.46909 1.46687 1.9309 1.79882 1.59895ZM6.42541 7.42763C6.30508 7.3073 6.11564 7.29095 5.97648 7.38889C4.53807 8.40122 3.25445 9.81246 2.24915 11.6307C2.19088 11.736 2.19088 11.864 2.24915 11.9694C4.54945 16.1297 8.30308 18.15 11.9999 18.15C13.2595 18.15 14.5279 17.9153 15.7439 17.4395C15.8539 17.3965 15.9348 17.3009 15.959 17.1853C15.9832 17.0697 15.9474 16.9496 15.8639 16.8661L13.7995 14.8017C13.6945 14.6967 13.5348 14.6694 13.4009 14.7335C12.9771 14.9363 12.5023 15.05 11.9999 15.05C10.2049 15.05 8.74987 13.595 8.74987 11.8C8.74987 11.2976 8.86362 10.8228 9.06643 10.399C9.1305 10.2651 9.10316 10.1054 8.99821 10.0004L6.42541 7.42763Z" fill="#DADADA"/>
<path d="M11.7365 5.45342L10.1739 3.89088C10.7781 3.7971 11.3882 3.75 11.9998 3.75C16.5424 3.75 21.0256 6.35081 23.5601 11.4199C23.6798 11.6592 23.6798 11.9408 23.5601 12.1801C22.9818 13.3367 22.3023 14.3643 21.5444 15.2614L20.338 14.055C20.8524 13.4317 21.3263 12.7367 21.7506 11.9694C21.8088 11.864 21.8088 11.736 21.7506 11.6307C19.4503 7.47028 15.6966 5.45 11.9998 5.45C11.9121 5.45 11.8243 5.45114 11.7365 5.45342Z" fill="#DADADA"/>
</svg>
